<svg width="641" height="510" fill="none" xmlns="http://www.w3.org/2000/svg"><g clip-path="url(#clip0_3_13)" fill="#fff"><path d="M.334 222.404c6.112.092 12.068-.75 17.82-2.836 8.055-2.921 14.405-7.893 18.128-15.753 2.08-4.395 3.158-9.104 3.885-13.927.997-6.619.637-13.258.57-19.883-.06-5.766-.604-11.527-.95-17.289-.205-3.398-.46-6.792-.661-10.19-.349-5.874-.659-11.749-1.015-17.622-.187-3.064-.474-6.123-.653-9.187-.36-6.154-.758-12.306-.992-18.465-.306-8.072-.621-16.149-.63-24.224-.006-4.425.444-8.87.98-13.27 1.006-8.243 2.61-16.387 5.716-24.121 2.089-5.199 4.912-10.009 8.527-14.366 4.413-5.32 9.722-9.457 15.895-12.453a61.117 61.117 0 0117.3-5.414c5.437-.847 10.952-1.195 16.437-1.724 2.243-.216 4.496-.328 6.868-.496v57.493c-1.825.155-3.723.297-5.617.481-6.747.656-12.895 2.716-17.284 8.198-2.386 2.98-3.68 6.605-4.02 10.384-.442 4.935-.646 9.904-.674 14.86-.02 3.729.397 7.46.622 11.191.22 3.675.447 7.349.667 11.024.336 5.598.666 11.196 1.006 16.794.216 3.564.45 7.127.665 10.691.34 5.652.67 11.303 1.005 16.955.222 3.731.537 7.459.648 11.193.186 6.263.534 12.542.276 18.792-.278 6.778-1.019 13.53-2.502 20.206-1.43 6.436-3.249 12.715-6.508 18.434-1.968 3.451-4.462 6.62-6.883 9.792-3.483 4.565-8.013 8.006-12.917 10.856-3.593 2.087-7.453 3.729-11.256 5.432-1.743.78-3.636 1.23-5.639 1.888 7.433 1.827 14.275 4.751 20.482 8.919a51.807 51.807 0 0111.842 10.942c5.787 7.325 9.033 15.674 10.758 24.69.866 4.522 1.404 9.108 2.026 13.674 1.126 8.27.624 16.591.637 24.891.006 3.953-.396 7.908-.629 11.861-.212 3.62-.449 7.239-.668 10.859-.227 3.732-.443 7.465-.669 11.197-.22 3.619-.45 7.238-.67 10.857-.226 3.731-.444 7.462-.67 11.192-.22 3.62-.45 7.239-.666 10.858-.23 3.844-.493 7.686-.657 11.532-.17 3.98-.543 7.985-.273 11.941.364 5.325 1.342 10.642 4.697 15.032 2.632 3.445 6.162 5.879 10.437 6.842 4.058.914 8.195 1.483 12.545 2.248v56.795c-2.125.156-4.25.156-6.591.022-5.698-.714-11.21-1.094-16.654-1.924a60.915 60.915 0 01-17.61-5.516c-6.126-2.994-11.421-7.059-15.764-12.381-4.107-5.031-7.057-10.671-9.243-16.729-2.183-6.051-3.7-12.276-4.36-18.688-.58-5.648-1.478-11.294-1.58-16.953-.138-7.567.293-15.149.599-22.719.232-5.769.645-11.531.984-17.296.216-3.675.448-7.35.666-11.025.338-5.707.668-11.416 1.006-17.123.218-3.675.447-7.349.666-11.024.338-5.652.845-11.301.956-16.957.111-5.706-.075-11.423-.316-17.128-.2-4.765-1.364-9.338-2.925-13.87-2.702-7.843-7.935-13.342-15.123-17.07-6.885-3.572-14.415-4.457-22.047-4.708v-66.685zM641.334 287.93c-7.848.466-15.546 1.39-22.649 5.147-7.15 3.783-12.13 9.358-14.828 17.029-1.699 4.833-2.8 9.754-2.971 14.867-.16 4.759-.414 9.526-.299 14.281.139 5.769.614 11.53.961 17.294.204 3.397.459 6.792.661 10.19.348 5.873.665 11.748 1.011 17.621.206 3.509.451 7.015.662 10.523.343 5.706.463 11.435 1.053 17.115.987 9.518.803 19.059.522 28.568-.289 9.806-1.671 19.564-4.634 28.965-2.237 7.097-5.459 13.744-10.257 19.583-4.693 5.709-10.359 10.125-17.027 13.151-5.222 2.37-10.686 4.233-16.402 5.028-5.18.721-10.397 1.181-15.604 1.692-2.452.24-4.918.331-7.462.495v-57.297c3.315-.454 6.575-.74 9.764-1.378 3.713-.742 7.115-2.259 10.128-4.674 4.239-3.397 6.015-8.003 6.765-13.128.449-3.068.883-6.163.954-9.254.064-2.775-.395-5.561-.59-8.344a229.76 229.76 0 01-.34-6.096c-.129-2.924-.19-5.852-.344-8.775-.31-5.875-.647-11.749-1.004-17.622-.187-3.064-.474-6.123-.653-9.188-.36-6.152-.667-12.308-1.016-18.461-.201-3.564-.508-7.124-.649-10.69-.273-6.904-.683-13.813-.608-20.715.052-4.846.8-9.686 1.26-14.527.615-6.478 2.159-12.74 4.324-18.87 2.008-5.684 4.907-10.821 8.649-15.563 4.864-6.164 10.761-11.032 17.747-14.495 4.482-2.222 9.193-3.982 13.318-5.742-5.204-1.46-10.825-3.562-16.143-6.576-5.038-2.857-9.52-6.334-13.417-10.559-4.322-4.685-7.444-10.138-9.803-16.048-2.363-5.923-3.664-12.124-4.614-18.379-.639-4.21-.843-8.499-1.033-12.762-.234-5.257-.375-10.525-.326-15.786.041-4.511.387-9.021.634-13.53.193-3.511.453-7.019.663-10.529.343-5.706.664-11.414 1.005-17.121.213-3.564.453-7.126.668-10.69.341-5.652.669-11.306 1.005-16.958.219-3.675.416-7.351.675-11.023.173-2.453.711-4.912.601-7.346-.179-3.97-.648-7.935-1.191-11.875-.492-3.57-1.983-6.755-4.229-9.617-2.142-2.729-4.946-4.429-8.084-5.702-4.495-1.825-9.243-2.19-14.188-2.423V.49c1.68-.157 3.359-.157 5.252-.021 2.469.267 4.732.313 6.975.552 3.455.369 6.913.767 10.339 1.335 7.747 1.284 15.145 3.614 21.936 7.666 7.483 4.464 13.158 10.675 17.296 18.255 3.072 5.626 5.001 11.688 6.516 17.94 1.881 7.76 2.765 15.639 3.152 23.543.341 6.968-.076 13.977-.264 20.965-.109 4.068-.416 8.13-.651 12.195-.209 3.62-.448 7.239-.664 10.859-.229 3.842-.443 7.685-.672 11.527-.216 3.622-.449 7.243-.666 10.865-.229 3.842-.442 7.685-.671 11.527-.217 3.622-.45 7.242-.666 10.864-.229 3.842-.597 7.684-.633 11.528-.045 4.816.147 9.635.309 14.451a48.08 48.08 0 003.33 16.097c2.7 6.867 7.251 12.061 13.75 15.614 7.302 3.991 15.262 4.941 23.367 5.326v66.351zM186.274 377.311c4.368 1.011 8.578 2.118 12.835 2.992 5.777 1.185 11.658 1.568 17.533 1.317 6.566-.281 12.967-1.482 19.024-4.263 4.506-2.069 8.53-4.755 12.27-8.006 4.655-4.047 8.205-8.866 11.232-14.189 4.145-7.289 6.378-15.214 7.924-23.336.814-4.273 1.332-8.671 1.355-13.016.209-39.684.298-79.369.384-119.054.043-19.827.008-39.655.008-59.622h-92.505V77.651h163.965c.028.342.092.763.092 1.184.005 79.093.031 158.186-.051 237.278-.005 5.292-.73 10.595-1.304 15.872-.534 4.909-1.157 9.82-2.031 14.678-.788 4.386-1.665 8.799-3.042 13.025-2.319 7.113-4.752 14.223-7.721 21.082-2.986 6.899-6.875 13.367-11.281 19.513-4.37 6.095-9.29 11.704-14.822 16.716a102.543 102.543 0 01-26.582 17.448c-7.692 3.492-15.663 6.209-23.999 7.69-5.124.91-10.286 1.615-15.44 2.351-8.161 1.166-16.393.898-24.564.569-8.398-.339-16.753-1.465-24.976-3.502-7.103-1.761-13.959-4.07-20.649-7.033-8.54-3.783-16.518-8.509-24.182-13.779-3.92-2.695-7.617-5.712-11.433-8.559-.867-.648-.532-1.295-.162-2.005 3.879-7.423 7.765-14.843 11.625-22.276 2.577-4.965 5.103-9.956 7.677-14.922 2.349-4.533 4.729-9.05 7.104-13.569.099-.19.281-.336.534-.631 9.468 7.711 19.513 14.376 31.182 18.53zM378.514 369.633v-74.428h37.725v56.951h38.124V295.2h37.412v148.863h-37.296v-62.3h-38.123v62.302h-37.842v-74.432zM383.196 90.904V80.21h1.68c16.27 0 32.544-.191 48.81.075 8.962.147 17.875 1.171 26.553 3.803 6.433 1.951 12.536 4.56 17.836 8.648 5.71 4.404 9.97 10.006 12.505 16.888 1.638 4.447 2.79 8.945 2.96 13.682.117 3.256.497 6.531.283 9.767-.633 9.559-2.978 18.598-8.881 26.422-4.84 6.416-10.733 11.536-18.349 14.314-4.825 1.76-9.761 3.265-14.733 4.555-2.766.718-5.704 1.01-8.571 1.058-8.152.135-16.307.047-24.598.047v49.704h-35.495V90.904zm72.723 48.444c1.784-5.631 2.01-11.354.817-17.11-.741-3.576-2.196-6.827-4.759-9.56-4.239-4.518-9.815-6.064-15.595-6.643-5.386-.539-10.849-.317-16.278-.421-.475-.009-.952.049-1.36.073v48.382c4.944 0 9.784.007 14.623-.002 5.604-.01 10.782-1.389 15.405-4.677 3.479-2.476 5.844-5.701 7.147-10.042zM479.496 251.653c3.956 0 7.745.009 11.534-.008.857-.004 1.532.024 1.526 1.191-.029 6.341-.013 12.681-.013 19.115H379.614v-20.298h99.882z"/></g><defs><clipPath id="clip0_3_13"><path fill="#fff" d="M0 0h641v510H0z"/></clipPath></defs></svg>