<?xml version="1.0" standalone="no"?>
<!DOCTYPE svg PUBLIC "-//W3C//DTD SVG 20010904//EN"
 "http://www.w3.org/TR/2001/REC-SVG-20010904/DTD/svg10.dtd">
<svg version="1.0" xmlns="http://www.w3.org/2000/svg"
 width="641.000000pt" height="641.000000pt" viewBox="0 0 641.000000 641.000000"
 preserveAspectRatio="xMidYMid meet">
<metadata>
Created by potrace 1.14, written by Peter Selinger 2001-2017
</metadata>
<g transform="translate(0.000000,641.000000) scale(0.100000,-0.100000)"
fill="#000000" stroke="none">
<path d="M5345 5752 c-3 -3 -5 -133 -5 -289 l0 -283 33 -1 c119 -2 201 -59
227 -159 13 -48 15 -155 6 -285 -3 -44 -8 -125 -11 -180 -3 -55 -8 -131 -10
-170 -16 -246 -19 -322 -18 -425 0 -114 7 -222 18 -270 2 -14 7 -35 10 -47 3
-13 7 -33 10 -45 2 -13 21 -56 40 -96 60 -121 166 -213 305 -266 61 -23 63
-25 40 -34 -60 -23 -159 -74 -181 -92 -80 -67 -124 -121 -159 -195 -77 -159
-97 -329 -76 -665 4 -63 9 -151 12 -195 3 -44 7 -109 9 -145 12 -175 18 -333
18 -404 -3 -161 -59 -234 -202 -257 l-72 -12 3 -286 c3 -252 5 -286 19 -285
109 8 223 21 249 29 10 3 29 8 42 10 13 3 55 20 93 39 218 107 315 335 309
725 -2 91 -5 198 -8 236 -3 39 -8 111 -10 160 -9 143 -16 254 -22 340 -7 87
-7 315 0 355 16 89 27 118 67 177 57 82 177 137 312 142 16 1 17 24 17 331 l0
330 -23 5 c-13 4 -27 5 -33 4 -17 -5 -113 20 -158 42 -57 26 -118 86 -143 141
-51 108 -57 239 -28 653 3 39 7 111 10 160 3 50 8 137 12 195 21 357 1 542
-79 710 -82 170 -235 271 -448 294 -25 2 -45 5 -45 6 0 4 -125 6 -130 2z"/>
<path d="M997 5744 c-1 -1 -32 -5 -68 -8 -142 -14 -235 -43 -319 -100 -112
-75 -202 -224 -224 -370 -4 -21 -8 -41 -11 -45 -10 -16 -24 -356 -15 -356 1 0
3 -36 5 -80 5 -107 15 -281 31 -515 9 -130 9 -390 0 -440 -18 -105 -84 -203
-166 -245 -36 -19 -127 -43 -180 -49 -25 -3 -45 -5 -46 -5 -4 -4 2 -651 7
-655 3 -3 30 -8 60 -12 164 -19 271 -102 314 -244 19 -61 29 -338 14 -377 -5
-15 -5 -23 2 -23 6 0 8 -4 5 -9 -3 -5 -8 -42 -11 -82 -5 -90 -20 -332 -30
-514 -6 -102 -6 -279 0 -325 2 -19 6 -51 8 -70 3 -19 8 -55 13 -80 4 -25 8
-48 8 -52 1 -3 4 -10 9 -14 4 -4 7 -14 7 -22 0 -31 71 -161 115 -210 67 -75
185 -140 285 -158 14 -3 36 -7 50 -10 14 -2 68 -7 120 -10 l96 -6 -1 283 0
284 -75 15 c-89 19 -108 28 -148 74 -35 40 -57 120 -50 184 2 23 0 42 -5 42
-4 0 -6 4 -2 9 3 5 7 45 10 88 3 43 7 114 10 158 3 44 7 118 10 165 3 47 8
123 11 170 10 128 10 478 1 540 -28 190 -77 295 -181 393 -51 48 -192 127
-227 127 -34 0 -20 17 29 35 118 46 203 113 271 214 59 88 86 166 109 306 8
52 7 341 -1 470 -4 55 -9 143 -13 195 -3 52 -7 122 -10 155 -2 33 -6 140 -8
238 -5 193 3 238 47 288 37 43 73 60 149 73 l73 12 0 285 0 284 -38 0 c-21 1
-39 0 -40 -1z"/>
<path d="M1779 4982 c-13 -2 -15 -48 -15 -312 l0 -310 30 -1 c17 0 226 0 463
0 l432 0 -3 -937 c-3 -789 -6 -947 -19 -1002 -36 -155 -82 -246 -168 -331 -57
-56 -104 -91 -113 -82 -3 3 -6 2 -6 -4 0 -10 -92 -44 -135 -50 -64 -10 -186
-8 -248 4 -148 27 -233 63 -367 156 -72 51 -97 59 -90 31 1 -4 -3 -10 -8 -13
-5 -3 -49 -82 -97 -176 -48 -93 -100 -195 -116 -225 -46 -86 -46 -83 19 -134
70 -53 222 -147 272 -166 19 -8 37 -17 40 -20 6 -7 154 -57 190 -64 14 -2 46
-9 71 -15 221 -51 567 -20 786 69 256 105 487 338 578 585 10 28 23 56 28 62
5 7 6 13 2 13 -4 0 -3 6 3 13 6 7 13 24 16 37 3 14 14 55 25 92 11 37 22 91
26 120 3 29 8 64 10 78 3 14 7 50 11 80 8 65 12 2474 4 2492 -4 10 -173 13
-806 13 -440 0 -807 -1 -815 -3z"/>
<path d="M3832 4215 c0 -724 1 -745 19 -746 10 0 75 0 144 0 69 0 140 0 158 0
l34 1 -2 233 c0 127 1 239 3 247 3 13 24 16 138 15 121 -1 202 10 289 39 167
54 276 173 310 338 25 117 7 275 -42 371 -45 89 -184 188 -296 211 -15 4 -39
9 -54 12 -84 17 -148 21 -411 23 l-289 2 -1 -746z m558 481 c75 -11 140 -59
166 -122 33 -79 18 -206 -33 -272 -43 -57 -106 -79 -228 -81 -95 -2 -105 0
-106 16 -5 140 1 457 10 462 11 7 143 5 191 -3z"/>
<path d="M3801 3240 c-5 -4 -7 -162 -2 -193 0 -4 254 -6 564 -5 l562 3 0 98
c0 53 -2 97 -5 98 -22 4 -1113 3 -1119 -1z"/>
<path d="M3789 2806 c-5 -4 -3 -1470 2 -1477 3 -6 83 -8 190 -7 l184 3 -1 308
0 307 28 1 c15 0 84 0 153 0 69 0 142 0 163 0 l37 -1 0 -310 0 -310 186 0 186
0 0 743 0 744 -186 -1 -186 -1 -1 -277 c0 -153 -2 -280 -5 -282 -5 -5 -186 -8
-325 -7 l-51 1 1 276 c1 173 -3 279 -9 284 -7 5 -359 12 -366 6z"/>
</g>
</svg>
